<svg width="31" height="32" viewBox="0 0 31 32" fill="none" xmlns="http://www.w3.org/2000/svg">
<path d="M28.7445 2.49113C28.7445 2.49113 28.1771 2.49113 28.1723 2.48636C28.5681 3.1921 28.797 4.00274 28.797 4.86584C28.797 6.24393 28.22 7.48851 27.2949 8.37545C26.4223 9.20994 25.2397 9.72494 23.9331 9.72494C21.6299 9.72494 19.8846 7.94629 17.6959 7.6268C17.6434 7.61726 17.591 7.61249 17.5385 7.60772C17.4861 7.60296 17.4336 7.59342 17.3859 7.58865C17.343 7.58388 17.3097 7.58865 17.2715 7.58865C17.262 7.58865 17.2524 7.58865 17.2429 7.58865C17.2381 7.58865 17.2095 7.58865 17.1714 7.58865C17.1475 7.58865 17.1189 7.58865 17.0903 7.58865C15.9268 7.58388 14.8491 8.18948 14.2054 9.12411C13.4567 10.2113 13.0228 11.5322 12.7128 12.8483C12.6031 13.3252 12.503 13.7972 12.4172 14.2598C12.3313 14.7128 12.2598 15.1753 12.1931 15.6426C13.1134 15.2087 14.0146 14.6794 14.8777 14.3504C15.4023 14.1501 15.9649 14.05 16.5276 14.05C18.6925 14.05 20.5093 15.5187 21.0434 17.5167C21.0672 17.6073 21.0911 17.6931 21.1101 17.7837C21.2675 18.5657 21.2818 19.3716 21.3057 20.1679C21.3772 22.514 21.0338 25.9664 19.7273 30.9972H28.7445C29.9891 30.9972 31 29.9863 31 28.7417V4.74663C31 3.50682 29.9891 2.49113 28.7445 2.49113Z" fill="#00AEEF"/>
<path d="M12.1883 15.6469C12.05 15.7136 11.9069 15.7756 11.7687 15.8376C10.6051 16.3383 9.06968 16.4718 7.8251 16.1476C7.27196 16.0045 6.74265 15.7899 6.25627 15.5229C4.11998 14.3546 2.66559 12.0896 2.64652 9.48596C2.64652 9.46689 2.64175 9.44781 2.64175 9.42874C2.64175 5.82852 5.38363 2.86729 8.89325 2.52395C9.34149 2.48104 9.78019 2.49057 10.2237 2.49057H28.1723C27.8671 1.9422 27.4522 1.46535 26.9658 1.07433C26.5891 0.773915 26.1695 0.525953 25.7165 0.344751C24.7485 -0.0414977 23.8568 0.00141873 22.8363 0.00141873H2.2555C1.00615 0.00141873 0 1.01234 0 2.25692V28.7459C0 29.9905 1.00615 31.0014 2.2555 31.0014H12.6985C12.0405 28.3263 11.3586 21.5503 12.1883 15.6469Z" fill="#B1B3B6"/>
<path d="M28.1723 2.48635H10.2237C9.7802 2.48635 9.34149 2.47681 8.89325 2.51973C5.38364 2.86783 2.64175 5.82906 2.64175 9.42928C2.64175 9.44835 2.64652 9.46743 2.64652 9.4865C2.6656 12.0901 4.11999 14.3551 6.25628 15.5234C6.74743 15.7905 7.27197 16.005 7.82511 16.1481C9.06969 16.4723 10.6051 16.3388 11.7687 15.8381C11.9069 15.7761 12.0452 15.7142 12.1883 15.6474C12.255 15.1801 12.3266 14.7175 12.4124 14.2645C12.4982 13.802 12.5936 13.3251 12.7081 12.8531C13.018 11.537 13.4519 10.2113 14.2006 9.12886C14.8443 8.19424 15.922 7.58387 17.0855 7.59341C17.1141 7.59341 17.1428 7.59341 17.1666 7.59341C17.2047 7.59341 17.2381 7.59341 17.2381 7.59341C17.2477 7.59341 17.2572 7.59341 17.2667 7.59341C17.3049 7.59341 17.3383 7.58864 17.3812 7.59341C17.4336 7.59818 17.4813 7.60771 17.5338 7.61248C17.5862 7.61725 17.6387 7.62679 17.6911 7.63155C19.8846 7.94628 21.6299 9.72969 23.9283 9.72969C25.2349 9.72969 26.4127 9.2147 27.2901 8.38021C28.2152 7.49804 28.7922 6.25346 28.7922 4.87059C28.797 4.00273 28.5681 3.19208 28.1723 2.48635Z" fill="#2E3092"/>
</svg>
